<?xml version="1.0" standalone="no"?><!DOCTYPE svg PUBLIC "-//W3C//DTD SVG 1.1//EN" "http://www.w3.org/Graphics/SVG/1.1/DTD/svg11.dtd"><svg class="icon" width="200px" height="200.00px" viewBox="0 0 1024 1024" version="1.1" xmlns="http://www.w3.org/2000/svg"><path d="M704 64c117.824 0 213.333333 95.509333 213.333333 213.333333v469.333334c0 117.824-95.509333 213.333333-213.333333 213.333333H320C202.176 960 106.666667 864.490667 106.666667 746.666667V277.333333C106.666667 159.509333 202.176 64 320 64h384z m0 74.666667H320a138.666667 138.666667 0 0 0-138.581333 133.696L181.333333 277.333333v469.333334a138.666667 138.666667 0 0 0 133.696 138.581333L320 885.333333h384a138.666667 138.666667 0 0 0 138.581333-133.696L842.666667 746.666667V277.333333a138.666667 138.666667 0 0 0-133.696-138.581333L704 138.666667z" fill="#707070" /><path d="M482.922667 86.101333h68.266666v198.976l34.432-18.453333a34.133333 34.133333 0 0 1 28.992-1.536l3.050667 1.429333 35.904 18.986667 0.021333-199.402667h68.266667v256a34.133333 34.133333 0 0 1-47.509333 31.402667l-2.56-1.216-69.930667-36.906667-68.672 36.8a34.133333 34.133333 0 0 1-50.133333-27.264l-0.128-2.816v-256z" fill="#707070" /></svg>