<?xml version="1.0" standalone="no"?><!DOCTYPE svg PUBLIC "-//W3C//DTD SVG 1.1//EN" "http://www.w3.org/Graphics/SVG/1.1/DTD/svg11.dtd"><svg class="icon" width="200px" height="200.00px" viewBox="0 0 1024 1024" version="1.1" xmlns="http://www.w3.org/2000/svg"><path d="M53.333333 512a455.082667 455.082667 0 0 1 92.586667-276.48 32.128 32.128 0 0 1 51.2 38.826667A390.869333 390.869333 0 0 0 117.333333 512 394.666667 394.666667 0 1 0 512 117.333333a32.213333 32.213333 0 0 1-32-32 32.213333 32.213333 0 0 1 32-32A458.666667 458.666667 0 1 1 53.333333 512z" fill="#d4237a" /><path d="M181.333333 512a32.213333 32.213333 0 0 1 32-32 32.213333 32.213333 0 0 1 32 32A266.666667 266.666667 0 1 0 512 245.333333a32.213333 32.213333 0 0 1-32-32 32.213333 32.213333 0 0 1 32-32A330.666667 330.666667 0 1 1 181.333333 512z" fill="#d4237a" /><path d="M480 682.666667a32.213333 32.213333 0 0 1 32-32 138.666667 138.666667 0 0 0 0-277.333334 32.213333 32.213333 0 0 1-32-32 32.213333 32.213333 0 0 1 32-32 202.666667 202.666667 0 0 1 0 405.333334 32.213333 32.213333 0 0 1-32-32z" fill="#d4237a" /></svg>